<svg xmlns="http://www.w3.org/2000/svg" viewBox="0 0 95 49.44">

<g id="Layer_2" data-name="Layer 2"><g id="Layer_1-2" data-name="Layer 1"><path d="M0,49.44V9.24H10.08l9.36,16.64c1.31,2.35,2.46,4.55,3.43,6.59a46.83,46.83,0,0,1,1.88,4.33l.48,1.31a96.1,96.1,0,0,1-.6-12.23V9.24h9.18v40.2H23.74L14.13,32.8c-1.27-2.15-2.39-4.26-3.37-6.35s-1.64-3.63-2-4.62l-.48-1.49A76.15,76.15,0,0,1,9.18,32.8V49.44Z" style="fill:#7F7F7F"/><path d="M39.78,26.06V21.47A43,43,0,0,0,47,15q2.92-3.34,2.93-6c0-2-1.22-3-3.64-3a10.33,10.33,0,0,0-5.91,2.21V2a12.79,12.79,0,0,1,7-2A9.86,9.86,0,0,1,54,2.18a7.48,7.48,0,0,1,2.53,6q0,6.86-8.82,12.52h9.66v5.37Z" style="fill:#7F7F7F"/><path d="M84,49.44l-8.71-14h-2.8v14H63.33V9.24h13.9q6.74,0,10.82,3.58a11.78,11.78,0,0,1,4.09,9.31q0,8.58-7.34,11.86L95,49.44ZM72.52,16.7V28h4.35c4,0,6-2,6-5.85a5.24,5.24,0,0,0-1.55-4,5.92,5.92,0,0,0-4.23-1.46Z" style="fill:#7F7F7F"/></g></g></svg>